<svg width="47" height="46" viewBox="0 0 47 46" fill="none" xmlns="http://www.w3.org/2000/svg">
<path d="M23.5 26.8333C27.7281 26.8333 31.1666 23.3948 31.1666 19.1667C31.1666 14.9385 27.7281 11.5 23.5 11.5C19.2718 11.5 15.8333 14.9385 15.8333 19.1667C15.8333 23.3948 19.2718 26.8333 23.5 26.8333ZM23.5 15.3333C25.6141 15.3333 27.3333 17.0526 27.3333 19.1667C27.3333 21.2807 25.6141 23 23.5 23C21.3859 23 19.6666 21.2807 19.6666 19.1667C19.6666 17.0526 21.3859 15.3333 23.5 15.3333Z" fill="white"/>
<path d="M22.3884 41.8103C22.7128 42.042 23.1014 42.1665 23.5001 42.1665C23.8987 42.1665 24.2873 42.042 24.6117 41.8103C25.1944 41.3982 38.889 31.5102 38.8334 19.1668C38.8334 10.7124 31.9545 3.8335 23.5001 3.8335C15.0457 3.8335 8.16673 10.7124 8.16673 19.1572C8.11115 31.5102 21.8057 41.3982 22.3884 41.8103ZM23.5001 7.66683C29.8423 7.66683 35.0001 12.8246 35.0001 19.1764C35.0403 27.6826 26.5897 35.3205 23.5001 37.8256C20.4123 35.3186 11.9598 27.6787 12.0001 19.1668C12.0001 12.8246 17.1578 7.66683 23.5001 7.66683Z" fill="white"/>
</svg>
