<svg width="148" height="61" viewBox="0 0 148 61" fill="none" xmlns="http://www.w3.org/2000/svg">
<g clip-path="url(#clip0)">
<path d="M23.97 36.96C24.1533 38.0233 24.4833 38.83 24.96 39.38C25.4733 39.8933 26.17 40.15 27.05 40.15C28.4067 40.15 29.2867 39.4717 29.69 38.115C30.13 36.7217 30.35 34.5033 30.35 31.46C29.69 32.4867 28.7367 33.2933 27.49 33.88C26.2433 34.4667 24.8317 34.76 23.255 34.76C19.7717 34.76 16.9667 33.66 14.84 31.46C12.7133 29.26 11.65 26.0883 11.65 21.945C11.65 19.195 12.2183 16.8117 13.355 14.795C14.5283 12.7417 16.1783 11.165 18.305 10.065C20.4683 8.965 22.98 8.415 25.84 8.415C31.6333 8.415 35.6483 10.12 37.885 13.53C40.1583 16.94 41.295 21.7983 41.295 28.105C41.295 35.365 40.1767 40.81 37.94 44.44C35.74 48.07 32.0183 49.885 26.775 49.885C23.8783 49.885 21.385 49.28 19.295 48.07C17.205 46.86 15.5917 45.2833 14.455 43.34C13.355 41.36 12.7317 39.2333 12.585 36.96H23.97ZM26.28 25.41C27.27 25.41 28.0583 25.135 28.645 24.585C29.2317 24.035 29.525 23.265 29.525 22.275C29.525 21.175 29.2317 20.3683 28.645 19.855C28.095 19.305 27.3067 19.03 26.28 19.03C25.2533 19.03 24.4467 19.305 23.86 19.855C23.31 20.3683 23.035 21.175 23.035 22.275C23.035 23.265 23.3283 24.035 23.915 24.585C24.5017 25.135 25.29 25.41 26.28 25.41ZM56.9874 36.96C57.1707 38.0233 57.5007 38.83 57.9774 39.38C58.4907 39.8933 59.1874 40.15 60.0674 40.15C61.4241 40.15 62.3041 39.4717 62.7074 38.115C63.1474 36.7217 63.3674 34.5033 63.3674 31.46C62.7074 32.4867 61.7541 33.2933 60.5074 33.88C59.2607 34.4667 57.8491 34.76 56.2724 34.76C52.7891 34.76 49.9841 33.66 47.8574 31.46C45.7307 29.26 44.6674 26.0883 44.6674 21.945C44.6674 19.195 45.2357 16.8117 46.3724 14.795C47.5457 12.7417 49.1957 11.165 51.3224 10.065C53.4857 8.965 55.9974 8.415 58.8574 8.415C64.6507 8.415 68.6657 10.12 70.9024 13.53C73.1757 16.94 74.3124 21.7983 74.3124 28.105C74.3124 35.365 73.1941 40.81 70.9574 44.44C68.7574 48.07 65.0357 49.885 59.7924 49.885C56.8957 49.885 54.4024 49.28 52.3124 48.07C50.2224 46.86 48.6091 45.2833 47.4724 43.34C46.3724 41.36 45.7491 39.2333 45.6024 36.96H56.9874ZM59.2974 25.41C60.2874 25.41 61.0757 25.135 61.6624 24.585C62.2491 24.035 62.5424 23.265 62.5424 22.275C62.5424 21.175 62.2491 20.3683 61.6624 19.855C61.1124 19.305 60.3241 19.03 59.2974 19.03C58.2707 19.03 57.4641 19.305 56.8774 19.855C56.3274 20.3683 56.0524 21.175 56.0524 22.275C56.0524 23.265 56.3457 24.035 56.9324 24.585C57.5191 25.135 58.3074 25.41 59.2974 25.41Z" fill="#30D7BA"/>
<path d="M103.79 20.88C103.79 21.98 103.5 23 102.92 23.94C102.36 24.86 101.52 25.62 100.4 26.22C99.3 26.8 97.99 27.12 96.47 27.18V29.61H94.55V27.15C92.43 26.97 90.72 26.34 89.42 25.26C88.12 24.16 87.43 22.67 87.35 20.79H92.81C92.93 21.99 93.51 22.76 94.55 23.1V18.36C92.99 17.96 91.74 17.57 90.8 17.19C89.88 16.81 89.07 16.2 88.37 15.36C87.67 14.52 87.32 13.37 87.32 11.91C87.32 10.09 87.99 8.63 89.33 7.53C90.69 6.43 92.43 5.81 94.55 5.67V3.24H96.47V5.67C98.57 5.83 100.23 6.44 101.45 7.5C102.67 8.56 103.35 10.03 103.49 11.91H98C97.88 10.83 97.37 10.13 96.47 9.81V14.46C98.13 14.92 99.41 15.33 100.31 15.69C101.21 16.05 102.01 16.65 102.71 17.49C103.43 18.31 103.79 19.44 103.79 20.88ZM92.75 11.67C92.75 12.17 92.9 12.59 93.2 12.93C93.52 13.27 93.97 13.57 94.55 13.83V9.66C93.99 9.76 93.55 9.98 93.23 10.32C92.91 10.64 92.75 11.09 92.75 11.67ZM96.47 23.19C97.07 23.09 97.54 22.85 97.88 22.47C98.24 22.09 98.42 21.62 98.42 21.06C98.42 20.54 98.25 20.12 97.91 19.8C97.59 19.46 97.11 19.17 96.47 18.93V23.19Z" fill="#30D7BA"/>
<path d="M88.5195 47.9941V51H86.7617V42.4688H90.0898C90.7305 42.4688 91.293 42.5859 91.7773 42.8203C92.2656 43.0547 92.6406 43.3887 92.9023 43.8223C93.1641 44.252 93.2949 44.7422 93.2949 45.293C93.2949 46.1289 93.0078 46.7891 92.4336 47.2734C91.8633 47.7539 91.0723 47.9941 90.0605 47.9941H88.5195ZM88.5195 46.5703H90.0898C90.5547 46.5703 90.9082 46.4609 91.1504 46.2422C91.3965 46.0234 91.5195 45.7109 91.5195 45.3047C91.5195 44.8867 91.3965 44.5488 91.1504 44.291C90.9043 44.0332 90.5645 43.9004 90.1309 43.8926H88.5195V46.5703ZM97.3324 51.1172C96.4027 51.1172 95.6449 50.832 95.059 50.2617C94.477 49.6914 94.1859 48.9316 94.1859 47.9824V47.8184C94.1859 47.1816 94.309 46.6133 94.5551 46.1133C94.8012 45.6094 95.1488 45.2227 95.598 44.9531C96.0512 44.6797 96.5668 44.543 97.1449 44.543C98.0121 44.543 98.6937 44.8164 99.1898 45.3633C99.6898 45.9102 99.9398 46.6855 99.9398 47.6895V48.3809H95.9027C95.9574 48.7949 96.1215 49.127 96.3949 49.377C96.6723 49.627 97.0219 49.752 97.4437 49.752C98.0961 49.752 98.6059 49.5156 98.973 49.043L99.8051 49.9746C99.5512 50.334 99.2074 50.6152 98.7738 50.8184C98.3402 51.0176 97.8598 51.1172 97.3324 51.1172ZM97.1391 45.9141C96.8031 45.9141 96.5297 46.0273 96.3187 46.2539C96.1117 46.4805 95.9789 46.8047 95.9203 47.2266H98.2758V47.0918C98.268 46.7168 98.1664 46.4277 97.9711 46.2246C97.7758 46.0176 97.4984 45.9141 97.1391 45.9141ZM104.569 46.248C104.339 46.2168 104.136 46.2012 103.96 46.2012C103.319 46.2012 102.899 46.418 102.7 46.8516V51H101.007V44.6602H102.606L102.653 45.416C102.993 44.834 103.464 44.543 104.065 44.543C104.253 44.543 104.429 44.5684 104.593 44.6191L104.569 46.248ZM106.023 51.7324H104.763L107.904 42.4688H109.163L106.023 51.7324ZM114.754 44.6602L114.807 45.3691C115.256 44.8184 115.863 44.543 116.629 44.543C117.445 44.543 118.006 44.8652 118.311 45.5098C118.756 44.8652 119.391 44.543 120.215 44.543C120.902 44.543 121.414 44.7441 121.75 45.1465C122.086 45.5449 122.254 46.1465 122.254 46.9512V51H120.555V46.957C120.555 46.5977 120.484 46.3359 120.344 46.1719C120.203 46.0039 119.955 45.9199 119.6 45.9199C119.092 45.9199 118.74 46.1621 118.545 46.6465L118.551 51H116.857V46.9629C116.857 46.5957 116.785 46.3301 116.641 46.166C116.496 46.002 116.25 45.9199 115.902 45.9199C115.422 45.9199 115.074 46.1191 114.859 46.5176V51H113.166V44.6602H114.754ZM123.397 47.7715C123.397 47.1426 123.518 46.582 123.76 46.0898C124.002 45.5977 124.35 45.2168 124.803 44.9473C125.26 44.6777 125.789 44.543 126.391 44.543C127.246 44.543 127.944 44.8047 128.483 45.3281C129.026 45.8516 129.329 46.5625 129.391 47.4609L129.403 47.8945C129.403 48.8672 129.131 49.6484 128.588 50.2383C128.045 50.8242 127.317 51.1172 126.403 51.1172C125.489 51.1172 124.758 50.8242 124.211 50.2383C123.668 49.6523 123.397 48.8555 123.397 47.8477V47.7715ZM125.09 47.8945C125.09 48.4961 125.204 48.957 125.43 49.2773C125.657 49.5938 125.981 49.752 126.403 49.752C126.813 49.752 127.133 49.5957 127.364 49.2832C127.594 48.9668 127.709 48.4629 127.709 47.7715C127.709 47.1816 127.594 46.7246 127.364 46.4004C127.133 46.0762 126.809 45.9141 126.391 45.9141C125.977 45.9141 125.657 46.0762 125.43 46.4004C125.204 46.7207 125.09 47.2188 125.09 47.8945ZM132.104 44.6602L132.157 45.3926C132.61 44.8262 133.218 44.543 133.979 44.543C134.651 44.543 135.151 44.7402 135.479 45.1348C135.807 45.5293 135.975 46.1191 135.983 46.9043V51H134.29V46.9453C134.29 46.5859 134.212 46.3262 134.055 46.166C133.899 46.002 133.639 45.9199 133.276 45.9199C132.8 45.9199 132.442 46.123 132.204 46.5293V51H130.511V44.6602H132.104ZM139.4 43.1016V44.6602H140.484V45.9023H139.4V49.0664C139.4 49.3008 139.445 49.4688 139.534 49.5703C139.624 49.6719 139.796 49.7227 140.05 49.7227C140.237 49.7227 140.404 49.709 140.548 49.6816V50.9648C140.216 51.0664 139.874 51.1172 139.523 51.1172C138.335 51.1172 137.73 50.5176 137.706 49.3184V45.9023H136.78V44.6602H137.706V43.1016H139.4ZM143.179 45.3516C143.629 44.8125 144.193 44.543 144.873 44.543C146.248 44.543 146.945 45.3418 146.964 46.9395V51H145.271V46.9863C145.271 46.623 145.193 46.3555 145.037 46.1836C144.88 46.0078 144.621 45.9199 144.257 45.9199C143.761 45.9199 143.402 46.1113 143.179 46.4941V51H141.486V42H143.179V45.3516Z" fill="#5C5C5C"/>
</g>
<defs>
<clipPath id="clip0">
<rect width="148" height="61" fill="white"/>
</clipPath>
</defs>
</svg>
